# xmcd
#
# Track frame offsets: 
#        150
#        11963
#        26141
#        39755
#        51872
#        65639
#        78953
#        91144
#        104085
#        116614
#        130268
#        144860
#
# Disc length: 2096 seconds
#
# Revision: 3
# Processed by: cddbd v1.5.2PL0 Copyright (c) Steve Scherf et al.
# Submitted via: ExactAudioCopy v1.3
#
DISCID=9e082e0c
DTITLE=Little Walter - The Best Of Little Walter
DYEAR=2013
DGENRE=Blues
TTITLE0=My Babe
TTITLE1=Sad Hours
TTITLE2=You're So Fine
TTITLE3=Last Night
TTITLE4=Blues With A Feeling
TTITLE5=Can't Hold Out Much Longer
TTITLE6=Juke
TTITLE7=Old Mean World
TTITLE8=Off The Wall
TTITLE9=You Better Watch Yourself
TTITLE10=Blue Light
TTITLE11=Tell Me Mama
EXTD=
EXTT0=
EXTT1=
EXTT2=
EXTT3=
EXTT4=
EXTT5=
EXTT6=
EXTT7=
EXTT8=
EXTT9=
EXTT10=
EXTT11=
PLAYORDER=
